<svg width="32" height="32" viewBox="0 0 32 32" fill="none" xmlns="http://www.w3.org/2000/svg">
<path fill-rule="evenodd" clip-rule="evenodd" d="M24.796 9.11923H22.2001C22.2001 5.73968 19.4604 3 16.0808 3C12.7012 3 9.96157 5.73968 9.96157 9.11923H7.36567C6.07314 9.11923 5.00338 10.1242 4.92275 11.4143L4.00486 26.1003C3.9168 27.5095 5.03591 28.7008 6.44778 28.7008H25.7138C27.1257 28.7008 28.2448 27.5095 28.1568 26.1003L27.2389 11.4142C27.1582 10.1242 26.0885 9.11923 24.796 9.11923ZM9.96157 11.5669H7.36567L6.44778 26.2531H25.7138L24.796 11.5669H22.2001V15.2385C22.2001 15.9144 21.6521 16.4623 20.9762 16.4623C20.3003 16.4623 19.7524 15.9144 19.7524 15.2385V11.5669H12.4093V15.2385C12.4093 15.9144 11.8613 16.4623 11.1854 16.4623C10.5095 16.4623 9.96157 15.9144 9.96157 15.2385V11.5669ZM16.0808 5.44769C18.1085 5.44769 19.7524 7.0915 19.7524 9.11923H12.4093C12.4093 7.0915 14.053 5.44769 16.0808 5.44769Z" fill="#202020"/>
</svg>
