<svg width="25" height="26" viewBox="0 0 25 26" fill="none" xmlns="http://www.w3.org/2000/svg">
<path fill-rule="evenodd" clip-rule="evenodd" d="M20.796 6.11923H18.2001C18.2001 2.73968 15.4604 0 12.0808 0C8.70124 0 5.96157 2.73968 5.96157 6.11923H3.36567C2.07314 6.11923 1.00338 7.12423 0.922749 8.41425L0.00486399 23.1003C-0.083204 24.5095 1.03591 25.7008 2.44778 25.7008H21.7138C23.1257 25.7008 24.2448 24.5095 24.1568 23.1003L23.2389 8.41424C23.1582 7.12422 22.0885 6.11923 20.796 6.11923ZM5.96157 8.56693H3.36567L2.44778 23.2531H21.7138L20.796 8.56693H18.2001V12.2385C18.2001 12.9144 17.6521 13.4623 16.9762 13.4623C16.3003 13.4623 15.7524 12.9144 15.7524 12.2385V8.56693H8.40926V12.2385C8.40926 12.9144 7.86132 13.4623 7.18542 13.4623C6.5095 13.4623 5.96157 12.9144 5.96157 12.2385V8.56693ZM12.0808 2.44769C14.1085 2.44769 15.7524 4.0915 15.7524 6.11923H8.40926C8.40926 4.0915 10.053 2.44769 12.0808 2.44769Z" fill="#202020"/>
</svg>
