<svg width="28" height="24" viewBox="0 0 28 24" fill="none" xmlns="http://www.w3.org/2000/svg">
<path fill-rule="evenodd" clip-rule="evenodd" d="M19.978 0C22.1031 0 24.1415 0.843253 25.6455 2.34464C27.1495 3.84603 27.9963 5.88287 28 8.008C28 12.3199 26.418 14.3779 19.348 19.9639L15.7168 22.7825C14.7065 23.5666 13.2935 23.5666 12.2832 22.7825L8.652 19.9639C1.582 14.3779 0 12.3199 0 8.008C0.00370667 5.88287 0.85052 3.84603 2.35453 2.34464C3.85855 0.843253 5.89685 0 8.022 0C10.1898 0.0102933 12.2685 0.863867 13.818 2.38L14 2.55171L14.182 2.38C15.7315 0.863867 17.8101 0.0102933 19.978 0ZM12.9632 5.34249C12.9885 5.36637 13.0139 5.39024 13.0391 5.41405C13.5785 5.92311 14.4213 5.92311 14.9608 5.41405C14.9861 5.39016 15.0115 5.36623 15.0368 5.34225C16.2691 4.17892 17.5721 2.94856 19.2468 2.71911C19.49 2.6858 19.7363 2.66813 19.9843 2.66667C21.4007 2.66833 22.7589 3.23109 23.7615 4.23191C24.7648 5.23347 25.33 6.59195 25.3333 8.00951C25.3332 9.72221 25.0513 10.731 24.1716 11.9355C23.1384 13.3505 21.262 15.0527 17.7037 17.8645L14.0817 20.6758C14.0336 20.7131 13.9664 20.7131 13.9183 20.6758L10.2962 17.8645C6.73792 15.0527 4.86159 13.3505 3.82831 11.9355C2.94879 10.7311 2.66693 9.72261 2.66667 8.01047C2.66972 6.59256 3.23497 5.23369 4.23851 4.23191C5.24107 3.23109 6.59927 2.66833 8.01569 2.66667C8.26339 2.66812 8.50936 2.68576 8.75219 2.71899C10.4273 2.9482 11.7308 4.17889 12.9632 5.34249Z" fill="#202020"/>
</svg>
