<svg width="32" height="32" viewBox="0 0 32 32" fill="none" xmlns="http://www.w3.org/2000/svg">
<path fill-rule="evenodd" clip-rule="evenodd" d="M21.978 4C24.1031 4 26.1415 4.84325 27.6455 6.34464C29.1495 7.84603 29.9963 9.88287 30 12.008C30 16.3199 28.418 18.3779 21.348 23.9639L17.7168 26.7825C16.7065 27.5666 15.2935 27.5666 14.2832 26.7825L10.652 23.9639C3.582 18.3779 2 16.3199 2 12.008C2.00371 9.88287 2.85052 7.84603 4.35453 6.34464C5.85855 4.84325 7.89685 4 10.022 4C12.1898 4.01029 14.2685 4.86387 15.818 6.38L16 6.55171L16.182 6.38C17.7315 4.86387 19.8101 4.01029 21.978 4ZM14.9632 9.34249C14.9885 9.36637 15.0139 9.39024 15.0391 9.41405C15.5785 9.92311 16.4213 9.92311 16.9608 9.41405C16.9861 9.39016 17.0115 9.36623 17.0368 9.34225C18.2691 8.17892 19.5721 6.94856 21.2468 6.71911C21.49 6.6858 21.7363 6.66813 21.9843 6.66667C23.4007 6.66833 24.7589 7.23109 25.7615 8.23191C26.7648 9.23347 27.33 10.5919 27.3333 12.0095C27.3332 13.7222 27.0513 14.731 26.1716 15.9355C25.1384 17.3505 23.262 19.0527 19.7037 21.8645L16.0817 24.6758C16.0336 24.7131 15.9664 24.7131 15.9183 24.6758L12.2962 21.8645C8.73792 19.0527 6.86159 17.3505 5.82831 15.9355C4.94879 14.7311 4.66693 13.7226 4.66667 12.0105C4.66972 10.5926 5.23497 9.23369 6.23851 8.23191C7.24107 7.23109 8.59927 6.66833 10.0157 6.66667C10.2634 6.66812 10.5094 6.68576 10.7522 6.71899C12.4273 6.9482 13.7308 8.17889 14.9632 9.34249Z" fill="#202020"/>
</svg>
