<svg width="24" height="24" viewBox="0 0 24 24" fill="none" xmlns="http://www.w3.org/2000/svg">
<path fill-rule="evenodd" clip-rule="evenodd" d="M12.002 22C17.5248 22 22.002 17.5228 22.002 12C22.002 6.47715 17.5248 2 12.002 2C6.47911 2 2.00195 6.47715 2.00195 12C2.00195 17.5228 6.47911 22 12.002 22ZM11.002 15.5C11.002 16.0523 11.4497 16.5 12.002 16.5C12.5542 16.5 13.002 16.0523 13.002 15.5V13H15.502C16.0542 13 16.502 12.5523 16.502 12C16.502 11.4477 16.0542 11 15.502 11H13.002V8.5C13.002 7.94772 12.5542 7.5 12.002 7.5C11.4497 7.5 11.002 7.94772 11.002 8.5V11H8.50195C7.94967 11 7.50195 11.4477 7.50195 12C7.50195 12.5523 7.94967 13 8.50195 13H11.002V15.5Z" fill="#35932A"/>
</svg>
