<svg width="28" height="29" viewBox="0 0 28 29" fill="none" xmlns="http://www.w3.org/2000/svg">
<path fill-rule="evenodd" clip-rule="evenodd" d="M23.4962 7.00016H20.6681C20.6681 3.31827 17.6833 0.333496 14.0014 0.333496C10.3195 0.333496 7.33474 3.31827 7.33474 7.00016H4.50661C3.09845 7.00016 1.93298 8.09507 1.84514 9.5005L0.845143 25.5004C0.749196 27.0356 1.96842 28.3335 3.50661 28.3335H24.4962C26.0344 28.3335 27.2536 27.0356 27.1577 25.5004L26.1577 9.50048C26.0698 8.09506 24.9044 7.00016 23.4962 7.00016ZM7.33474 9.66683H4.50661L3.50661 25.6668H24.4962L23.4962 9.66683H20.6681V13.6668C20.6681 14.4032 20.0712 15.0002 19.3348 15.0002C18.5984 15.0002 18.0014 14.4032 18.0014 13.6668V9.66683H10.0014V13.6668C10.0014 14.4032 9.40445 15.0002 8.66808 15.0002C7.93169 15.0002 7.33474 14.4032 7.33474 13.6668V9.66683ZM14.0014 3.00016C16.2105 3.00016 18.0014 4.79103 18.0014 7.00016H10.0014C10.0014 4.79103 11.7922 3.00016 14.0014 3.00016Z" fill="black"/>
</svg>
