<svg width="18" height="10" viewBox="0 0 18 10" fill="none" xmlns="http://www.w3.org/2000/svg">
<path d="M15.5435 9.45492L9.0027 2.91421L2.46199 9.45492C2.41317 9.50372 2.36057 9.54652 2.30512 9.58312C1.91696 9.83942 1.38948 9.79662 1.04778 9.45492C0.803699 9.21092 0.712169 8.87202 0.773189 8.55682C0.809799 8.36772 0.901329 8.18722 1.04778 8.04072L8.2956 0.79289C8.4832 0.60535 8.7375 0.5 9.0027 0.5C9.2679 0.5 9.5223 0.60535 9.7098 0.79289L16.9577 8.04072C17.3482 8.43122 17.3482 9.06442 16.9577 9.45492C16.5672 9.84552 15.934 9.84552 15.5435 9.45492Z" fill="#4C4C4C"/>
</svg>
