<svg width="25" height="24" viewBox="0 0 25 24" fill="none" xmlns="http://www.w3.org/2000/svg">
<path d="M7.59325 16.2973H5.91084C5.67951 16.2973 5.49023 16.1133 5.49023 15.8846C5.49023 15.6559 5.67951 15.4692 5.91084 15.4692H7.59325C7.82458 15.4692 8.01385 15.6559 8.01385 15.8846C8.01385 16.1133 7.82458 16.2973 7.59325 16.2973Z" fill="#2C2C2C"/>
<path d="M21.2659 16.2977H20.2144C19.9831 16.2977 19.7938 16.1136 19.7938 15.8849C19.7938 15.6562 19.9831 15.4696 20.2144 15.4696H20.9163L21.4841 12.4912C21.4762 10.9691 20.1566 9.66791 18.532 9.66791H15.7692L14.4311 15.4696H16.8496C17.0809 15.4696 17.2702 15.6562 17.2702 15.8849C17.2702 16.1136 17.0809 16.2977 16.8496 16.2977H13.9054C13.7766 16.2977 13.6557 16.2425 13.5768 16.1426C13.4953 16.0453 13.4664 15.9165 13.4953 15.7929L15.0252 9.16318C15.0673 8.97128 15.2382 8.83984 15.4353 8.83984H18.532C20.6193 8.83984 22.3174 10.5117 22.3174 12.5674L21.6787 15.9612C21.6419 16.1557 21.4684 16.2977 21.2659 16.2977Z" fill="#2C2C2C"/>
<path d="M18.5307 17.9561C17.3715 17.9561 16.4277 17.0255 16.4277 15.8846C16.4277 14.7411 17.3715 13.8105 18.5307 13.8105C19.69 13.8105 20.6338 14.7411 20.6338 15.8846C20.6338 17.0255 19.69 17.9561 18.5307 17.9561ZM18.5307 14.6412C17.8341 14.6412 17.2689 15.1985 17.2689 15.8846C17.2689 16.5681 17.8341 17.1281 18.5307 17.1281C19.2274 17.1281 19.7926 16.5681 19.7926 15.8846C19.7926 15.1985 19.2274 14.6412 18.5307 14.6412Z" fill="#2C2C2C"/>
<path d="M9.27684 17.9561C8.11756 17.9561 7.17383 17.0255 7.17383 15.8846C7.17383 14.7411 8.11756 13.8105 9.27684 13.8105C10.4361 13.8105 11.3799 14.7411 11.3799 15.8846C11.3799 17.0255 10.4361 17.9561 9.27684 17.9561ZM9.27684 14.6412C8.58022 14.6412 8.01503 15.1985 8.01503 15.8846C8.01503 16.5681 8.58022 17.1281 9.27684 17.1281C9.97347 17.1281 10.5387 16.5681 10.5387 15.8846C10.5387 15.1985 9.97347 14.6412 9.27684 14.6412Z" fill="#2C2C2C"/>
<path d="M7.59207 8.83997H4.22724C3.99591 8.83997 3.80664 8.65333 3.80664 8.42462C3.80664 8.19592 3.99591 8.00928 4.22724 8.00928H7.59207C7.8234 8.00928 8.01267 8.19592 8.01267 8.42462C8.01267 8.65333 7.8234 8.83997 7.59207 8.83997Z" fill="#2C2C2C"/>
<path d="M7.59148 11.3273H3.38545C3.15412 11.3273 2.96484 11.1406 2.96484 10.9119C2.96484 10.6832 3.15412 10.4966 3.38545 10.4966H7.59148C7.82281 10.4966 8.01208 10.6832 8.01208 10.9119C8.01208 11.1406 7.82281 11.3273 7.59148 11.3273Z" fill="#2C2C2C"/>
<path d="M7.59088 13.811H2.54365C2.31232 13.811 2.12305 13.627 2.12305 13.3983C2.12305 13.1696 2.31232 12.9829 2.54365 12.9829H7.59088C7.82222 12.9829 8.01149 13.1696 8.01149 13.3983C8.01149 13.627 7.82222 13.811 7.59088 13.811Z" fill="#2C2C2C"/>
<path d="M13.9003 16.2977H10.9561C10.7248 16.2977 10.5355 16.1136 10.5355 15.8849C10.5355 15.6562 10.7248 15.4696 10.9561 15.4696H13.5639L15.475 7.18109H5.90888C5.67755 7.18109 5.48828 6.99445 5.48828 6.76574C5.48828 6.53704 5.67755 6.35303 5.90888 6.35303H16.0034C16.1322 6.35303 16.2531 6.41086 16.3319 6.50812C16.4134 6.60539 16.4424 6.7342 16.4134 6.85775L14.3104 15.9743C14.2684 16.1662 14.0975 16.2977 13.9003 16.2977Z" fill="#2C2C2C"/>
</svg>
