<svg width="28" height="24" viewBox="0 0 28 24" fill="none" xmlns="http://www.w3.org/2000/svg">
<path fill-rule="evenodd" clip-rule="evenodd" d="M19.978 0.276855C22.1031 0.276855 24.1415 1.12011 25.6455 2.6215C27.1495 4.12288 27.9963 6.15972 28 8.28486C28 12.5968 26.418 14.6548 19.348 20.2408L15.7168 23.0593C14.7065 23.8435 13.2935 23.8435 12.2832 23.0593L8.652 20.2408C1.582 14.6548 0 12.5968 0 8.28486C0.00370667 6.15972 0.85052 4.12288 2.35453 2.6215C3.85855 1.12011 5.89685 0.276855 8.022 0.276855C10.1898 0.287149 12.2685 1.14072 13.818 2.65686L14 2.82856L14.182 2.65686C15.7315 1.14072 17.8101 0.287149 19.978 0.276855ZM12.9632 5.61935C12.9885 5.64323 13.0139 5.6671 13.0391 5.69091C13.5785 6.19996 14.4213 6.19996 14.9608 5.69091C14.9861 5.66702 15.0115 5.64308 15.0368 5.61911C16.2691 4.45578 17.5721 3.22542 19.2468 2.99596C19.49 2.96266 19.7363 2.94499 19.9843 2.94352C21.4007 2.94519 22.7589 3.50795 23.7615 4.50876C24.7648 5.51032 25.33 6.8688 25.3333 8.28636C25.3332 9.99907 25.0513 11.0079 24.1716 12.2124C23.1384 13.6273 21.262 15.3296 17.7037 18.1413L14.0817 20.9527C14.0336 20.99 13.9664 20.99 13.9183 20.9527L10.2962 18.1413C6.73792 15.3296 4.86159 13.6273 3.82831 12.2124C2.94879 11.008 2.66693 9.99947 2.66667 8.28732C2.66972 6.86942 3.23497 5.51055 4.23851 4.50876C5.24107 3.50795 6.59927 2.94519 8.01569 2.94352C8.26339 2.94498 8.50936 2.96262 8.75219 2.99584C10.4273 3.22506 11.7308 4.45575 12.9632 5.61935Z" fill="black"/>
</svg>
