<svg width="18" height="15" viewBox="0 0 18 15" fill="none" xmlns="http://www.w3.org/2000/svg">
<path fill-rule="evenodd" clip-rule="evenodd" d="M12.7441 0.172852C14.0722 0.172852 15.3462 0.699885 16.2862 1.63825C17.2262 2.57662 17.7555 3.84964 17.7578 5.17785C17.7578 7.87282 16.7691 9.15907 12.3503 12.6503L10.0808 14.4119C9.4494 14.902 8.56623 14.902 7.93481 14.4119L5.66531 12.6503C1.24656 9.15907 0.257812 7.87282 0.257812 5.17785C0.260129 3.84964 0.789387 2.57662 1.7294 1.63825C2.6694 0.699885 3.94335 0.172852 5.27156 0.172852C6.62645 0.179285 7.92565 0.712768 8.89406 1.66035L9.00781 1.76767L9.12156 1.66035C10.09 0.712768 11.3891 0.179285 12.7441 0.172852ZM8.35981 3.51191C8.37565 3.52683 8.39148 3.54175 8.40723 3.55663C8.7444 3.87479 9.27115 3.87479 9.60831 3.55663C9.62415 3.5417 9.63998 3.52674 9.65581 3.51176C10.426 2.78468 11.2404 2.0157 12.2871 1.87229C12.4391 1.85148 12.593 1.84044 12.748 1.83952C13.6332 1.84056 14.4821 2.19228 15.1087 2.81779C15.7358 3.44377 16.0891 4.29282 16.0911 5.17879C16.0911 6.24924 15.9149 6.87973 15.3651 7.63257C14.7193 8.5169 13.5466 9.58082 11.3226 11.3382L9.0589 13.0952C9.02881 13.1186 8.98681 13.1186 8.95673 13.0952L6.69292 11.3382C4.46901 9.58082 3.2963 8.5169 2.6505 7.63257C2.1008 6.87982 1.92465 6.24949 1.92448 5.17939C1.92639 4.2932 2.27967 3.44391 2.90688 2.81779C3.53348 2.19228 4.38235 1.84056 5.26762 1.83952C5.42243 1.84043 5.57616 1.85145 5.72793 1.87222C6.77487 2.01548 7.58956 2.78466 8.35981 3.51191Z" fill="#636363"/>
</svg>
