<svg width="20" height="20" viewBox="0 0 20 20" fill="none" xmlns="http://www.w3.org/2000/svg">
<path fill-rule="evenodd" clip-rule="evenodd" d="M20 10C20 15.5228 15.5228 20 10 20C4.47715 20 0 15.5228 0 10C0 4.47715 4.47715 0 10 0C15.5228 0 20 4.47715 20 10ZM14.5001 6.99998C14.8906 7.3905 14.8906 8.0237 14.5001 8.4142L9.7072 13.2071C9.3167 13.5976 8.6835 13.5976 8.293 13.2071L6.0001 10.9142C5.60957 10.5237 5.60957 9.8905 6.0001 9.5C6.39062 9.1095 7.02379 9.1095 7.41431 9.5L9.0001 11.0858L13.0859 6.99998C13.4764 6.60945 14.1096 6.60945 14.5001 6.99998Z" fill="#35932A"/>
</svg>
