<svg width="21" height="12" viewBox="0 0 21 12" fill="none" xmlns="http://www.w3.org/2000/svg">
<path d="M14.0039 2.76768L15.9862 4.74988H1.25391C0.563546 4.74988 0.00390625 5.30958 0.00390625 5.99988C0.00390625 6.69028 0.563546 7.24988 1.25391 7.24988H15.9862L14.0039 9.23208C13.5158 9.72028 13.5158 10.5118 14.0039 10.9999C14.4921 11.4881 15.2836 11.4881 15.7717 10.9999L19.8878 6.88378C20.376 6.39558 20.376 5.60418 19.8878 5.11598L15.7717 0.999909C15.2836 0.511749 14.4921 0.511749 14.0039 0.999909C13.9429 1.06093 13.8895 1.12669 13.8438 1.196C13.5234 1.68119 13.5768 2.34054 14.0039 2.76768Z" fill="white"/>
</svg>
