<svg width="21" height="20" viewBox="0 0 21 20" fill="none" xmlns="http://www.w3.org/2000/svg">
<path d="M7.50775 8.74992C7.83318 8.42451 8.36083 8.42451 8.68625 8.74992L10.0077 10.0714L11.3292 8.74992C11.6547 8.42451 12.1823 8.42451 12.5077 8.74992C12.8332 9.07534 12.8332 9.60301 12.5077 9.92842L11.1862 11.2499L12.5077 12.5714C12.8332 12.8968 12.8332 13.4245 12.5077 13.7499C12.1823 14.0753 11.6547 14.0753 11.3292 13.7499L10.0077 12.4284L8.68625 13.7499C8.36083 14.0753 7.83319 14.0753 7.50775 13.7499C7.18231 13.4245 7.18231 12.8968 7.50775 12.5714L8.82925 11.2499L7.50775 9.92842C7.18231 9.60301 7.18231 9.07534 7.50775 8.74992Z" fill="#636363"/>
<path fill-rule="evenodd" clip-rule="evenodd" d="M7.50716 0.833496C6.58669 0.833496 5.84049 1.57969 5.84049 2.50017V4.16683H2.50716C2.04693 4.16683 1.67383 4.53992 1.67383 5.00016C1.67383 5.4604 2.04693 5.8335 2.50716 5.8335H3.43854L4.08154 16.7647C4.13337 17.6457 4.86288 18.3335 5.74534 18.3335H14.269C15.1514 18.3335 15.881 17.6457 15.9327 16.7647L16.5758 5.8335H17.5072C17.9674 5.8335 18.3405 5.4604 18.3405 5.00016C18.3405 4.53992 17.9674 4.16683 17.5072 4.16683H14.1738V2.50017C14.1738 1.57969 13.4277 0.833496 12.5072 0.833496H7.50716ZM12.5072 4.16683V2.50017H7.50716V4.16683H12.5072ZM14.9062 5.8335H5.10809L5.74534 16.6668H14.269L14.9062 5.8335Z" fill="#636363"/>
</svg>
