<svg width="32" height="32" viewBox="0 0 32 32" fill="none" xmlns="http://www.w3.org/2000/svg">
<path fill-rule="evenodd" clip-rule="evenodd" d="M21.3346 9.33333C21.3346 12.2789 18.9468 14.6667 16.0013 14.6667C13.0558 14.6667 10.668 12.2789 10.668 9.33333C10.668 6.38781 13.0558 4 16.0013 4C18.9468 4 21.3346 6.38781 21.3346 9.33333ZM18.668 9.33333C18.668 10.8061 17.4741 12 16.0013 12C14.5285 12 13.3346 10.8061 13.3346 9.33333C13.3346 7.86057 14.5285 6.66667 16.0013 6.66667C17.4741 6.66667 18.668 7.86057 18.668 9.33333Z" fill="black"/>
<path fill-rule="evenodd" clip-rule="evenodd" d="M26.6654 22.8886C26.6654 22.3109 26.4843 21.743 26.1074 21.3052C23.6623 18.4649 20.0404 16.6665 15.9987 16.6665C11.9569 16.6665 8.33516 18.4649 5.88999 21.3052C5.51304 21.743 5.33203 22.3109 5.33203 22.8886V25.3332C5.33203 26.806 6.52594 27.9998 7.9987 27.9998H23.9987C25.4715 27.9998 26.6654 26.806 26.6654 25.3332V22.8886ZM23.9987 22.9442C22.0404 20.7258 19.1836 19.3332 15.9987 19.3332C12.8138 19.3332 9.95699 20.7258 7.9987 22.9442V25.3332H23.9987V22.9442ZM7.99892 22.8828C7.99892 22.8828 7.99894 22.8828 7.99892 22.8829C7.99891 22.883 7.9989 22.8832 7.99886 22.8834C7.99888 22.8832 7.99891 22.8829 7.99892 22.8828Z" fill="black"/>
</svg>
