<?xml version="1.0" standalone="no"?>
<!DOCTYPE svg PUBLIC "-//W3C//DTD SVG 20010904//EN"
 "http://www.w3.org/TR/2001/REC-SVG-20010904/DTD/svg10.dtd">
<svg version="1.0" xmlns="http://www.w3.org/2000/svg"
 width="1080.000000pt" height="1350.000000pt" viewBox="0 0 1080.000000 1350.000000"
 preserveAspectRatio="xMidYMid meet">

<g transform="translate(0.000000,1350.000000) scale(0.100000,-0.100000)"
fill="#000000" stroke="none">
<path d="M3290 12768 c-19 -5 -39 -14 -44 -19 -6 -5 -16 -9 -24 -9 -15 0 -130
-78 -176 -119 -62 -57 -209 -274 -205 -305 3 -24 -1 -37 -10 -32 -15 9 -54
-83 -55 -128 -1 -25 -5 -40 -13 -39 -6 1 -31 -35 -54 -80 -24 -45 -48 -90 -54
-99 -47 -78 -107 -193 -123 -238 -18 -49 -25 -85 -52 -265 -8 -52 4 -167 21
-214 6 -14 37 -51 71 -82 l60 -57 -10 -46 c-5 -25 -6 -46 -2 -46 4 0 11 19 15
43 5 25 10 34 12 22 3 -16 -32 -135 -62 -207 -4 -10 -3 -18 1 -18 8 0 34 61
58 133 5 16 26 25 26 11 0 -18 -33 -115 -41 -119 -26 -17 -4 -36 64 -56 81
-24 117 -53 162 -127 16 -27 41 -56 56 -64 28 -16 102 -118 119 -163 18 -47
-27 -118 -310 -485 -83 -108 -181 -214 -212 -231 -16 -9 -17 -6 -14 23 7 57
28 132 42 155 10 16 11 29 4 48 -19 49 -11 124 27 250 10 34 -8 9 -22 -32
l-14 -38 -1 65 c-2 55 -3 61 -11 35 -5 -16 -8 -66 -8 -110 2 -141 -9 -191 -57
-262 -24 -35 -46 -76 -50 -91 -3 -15 -9 -45 -14 -67 -8 -38 -14 -78 -40 -285
-6 -47 -15 -112 -20 -145 -15 -95 -39 -341 -44 -445 -5 -94 -8 -119 -27 -235
-6 -33 -12 -71 -14 -85 -17 -115 -32 -180 -39 -173 -5 5 -6 0 -3 -10 4 -10 8
-33 8 -50 1 -30 2 -29 9 8 4 22 21 114 38 205 17 91 47 282 67 425 20 143 39
278 43 300 l7 40 24 -39 c19 -30 24 -51 22 -86 -2 -43 1 -50 33 -81 23 -21 36
-43 36 -59 0 -27 42 -122 83 -188 l26 -41 -12 -298 c-7 -164 -13 -299 -12
-301 1 -1 12 18 25 42 12 24 19 49 16 55 -5 7 -1 8 10 4 13 -5 15 -2 10 15 -5
14 -1 30 8 44 9 12 16 43 16 68 0 72 29 217 54 273 47 104 166 217 299 283
149 75 325 111 592 119 174 6 330 -13 464 -54 36 -12 111 -35 167 -51 55 -17
125 -46 155 -65 30 -19 52 -35 49 -35 -23 0 -229 74 -245 89 -34 31 -61 35
-85 11 l-22 -22 -32 38 c-31 36 -37 38 -101 42 -37 3 -70 0 -74 -5 -3 -5 -23
-19 -44 -32 -76 -46 -54 -107 44 -120 l54 -7 -37 -13 c-21 -7 -41 -10 -46 -7
-4 2 -13 -10 -20 -27 l-12 -32 19 24 c16 21 27 24 87 25 38 0 97 -2 131 -6 50
-6 68 -3 99 13 21 10 43 19 50 19 26 0 100 -149 141 -284 23 -76 24 -85 25
-170 1 -62 4 -73 12 -55 10 24 10 24 14 -6 5 -35 38 -85 57 -85 26 0 26 21 1
65 -34 62 -17 48 25 -19 32 -53 60 -69 74 -46 4 6 -16 47 -43 93 -47 78 -122
234 -122 253 0 15 -69 186 -85 210 -25 38 -31 39 110 -6 55 -17 77 -31 103
-61 30 -35 38 -39 81 -39 45 0 52 -4 93 -47 50 -54 123 -158 139 -200 7 -15
15 -44 19 -65 6 -31 4 -38 -14 -46 -18 -9 -18 -11 -3 -11 9 -1 17 -6 17 -11 0
-6 9 -21 20 -33 11 -12 18 -27 16 -34 -6 -15 13 -12 169 24 148 34 163 40 88
39 -35 -1 -68 -7 -74 -13 -16 -16 -39 -5 -39 19 0 17 -3 18 -15 8 -12 -10 -15
-10 -15 3 0 8 -3 17 -8 19 -11 5 -94 107 -127 157 -17 24 -60 79 -97 122 -54
63 -64 79 -50 83 9 3 80 10 157 16 77 6 169 16 205 22 36 6 110 14 165 19 100
8 199 20 288 34 l47 7 1 -38 c1 -33 2 -35 8 -14 9 32 54 49 81 32 18 -11 20
-9 20 16 0 24 9 35 49 59 43 27 50 36 59 80 8 38 8 72 -3 144 -8 52 -15 164
-15 249 0 86 -4 160 -9 165 -5 6 -11 55 -14 111 -6 106 -1 124 36 124 10 0 16
4 13 9 -4 5 3 7 13 4 22 -6 160 31 200 52 l26 15 -25 -3 c-14 -1 -28 -5 -31
-10 -5 -7 -119 -19 -159 -18 -22 1 -85 9 -170 21 -101 14 -326 16 -342 3 -25
-20 -86 -26 -323 -29 -335 -4 -505 18 -505 65 0 6 -4 11 -8 11 -13 0 5 102 29
161 21 56 20 80 -2 30 -12 -26 -15 -28 -21 -13 -4 12 -6 8 -6 -13 0 -16 -6
-52 -14 -80 l-15 -50 -7 65 c-10 85 -38 142 -89 181 -45 35 -247 230 -247 239
0 6 161 -5 210 -14 53 -10 55 6 11 99 -22 48 -39 91 -36 95 3 4 14 10 25 13
17 4 29 -5 57 -44 19 -27 37 -49 39 -49 7 0 -48 84 -60 92 -43 28 137 7 249
-29 156 -50 665 -292 665 -315 0 -5 -21 -8 -47 -9 l-48 0 60 -23 c33 -13 104
-44 158 -70 127 -60 307 -105 307 -76 0 6 -7 10 -15 10 -8 0 -52 17 -97 39
-78 36 -145 82 -228 158 -49 45 -97 78 -155 106 -184 91 -480 227 -494 227 -9
0 -21 -4 -27 -10 -6 -6 -61 7 -157 40 -82 28 -160 50 -174 50 -22 0 -25 -3
-21 -29 4 -28 2 -30 -49 -44 -54 -16 -123 -8 -123 13 0 6 -5 10 -10 10 -7 0
-7 -8 1 -22 12 -23 12 -23 -14 1 -23 20 -33 23 -82 19 -42 -4 -58 -1 -62 9 -8
21 -26 15 -20 -7 3 -11 1 -18 -4 -14 -5 3 -9 1 -9 -4 0 -6 14 -19 32 -30 l32
-21 -40 6 c-29 4 -45 1 -55 -10 -12 -13 -19 -13 -63 4 -27 10 -53 22 -58 27
-14 14 31 52 65 53 90 3 122 16 124 51 1 13 12 30 25 38 12 8 30 22 38 30 9 9
32 26 53 39 40 24 48 36 20 27 -12 -4 -22 2 -29 18 -10 21 -9 25 8 29 10 3 24
0 31 -7 19 -20 67 -26 67 -9 0 34 -23 103 -35 103 -20 0 -85 78 -85 101 0 39
-25 13 -30 -32 -3 -30 -10 -44 -20 -44 -12 0 -15 18 -17 88 -3 91 -3 91 42 88
24 -3 259 -97 289 -116 21 -14 163 -65 180 -65 5 0 0 11 -13 23 -17 19 -20 29
-13 48 5 13 7 30 4 38 -3 9 0 11 9 6 8 -5 5 1 -5 13 -24 28 -13 28 27 1 21
-14 15 -5 -19 28 -36 35 -53 60 -58 86 -4 20 -11 37 -16 37 -13 0 -13 -17 0
-25 6 -3 10 -14 10 -23 0 -30 -48 36 -71 97 -11 31 -31 97 -44 146 -34 133
-37 147 -26 141 5 -4 13 -21 16 -39 4 -17 13 -43 21 -57 7 -14 27 -69 44 -122
17 -54 36 -101 42 -104 6 -4 8 -1 5 7 -3 8 -29 86 -57 173 -38 119 -50 168
-45 192 4 24 1 38 -12 52 -10 10 -19 25 -21 33 -1 8 -6 23 -11 34 -5 11 -16
36 -24 55 -9 19 -19 47 -22 62 -4 16 -11 25 -16 22 -5 -3 -6 1 -3 9 6 16 -57
141 -133 264 -28 45 -54 91 -58 102 -3 12 -11 21 -16 21 -5 0 -9 7 -9 16 0 9
-5 12 -12 8 -7 -4 -8 -3 -4 4 7 12 -34 94 -85 168 -38 56 -165 165 -238 205
-43 23 -73 32 -131 36 -41 3 -84 10 -95 15 -15 7 -14 4 5 -13 l25 -22 -30 8
c-45 12 -98 13 -118 3 -10 -5 -24 -5 -34 1 -13 7 -25 4 -44 -10 -15 -11 -30
-15 -33 -11 -3 5 6 15 19 22 13 7 22 18 18 23 -3 6 -1 7 5 3 6 -3 28 3 49 14
40 21 30 24 -27 8z m-109 -119 c-54 -52 -61 -49 -14 5 21 24 42 42 46 39 5 -3
-10 -23 -32 -44z m-51 6 c0 -2 -10 -9 -22 -15 -22 -11 -22 -10 -4 4 21 17 26
19 26 11z m487 -41 c-3 -3 -12 -4 -19 -1 -8 3 -5 6 6 6 11 1 17 -2 13 -5z
m-157 -139 c-8 -9 -8 -15 -2 -15 6 0 13 4 16 9 7 11 66 4 104 -12 50 -21 113
-86 139 -144 14 -31 39 -68 55 -82 31 -27 84 -163 67 -169 -4 -2 -5 -10 -2
-18 7 -20 0 -18 -49 15 -36 24 -58 30 -131 36 -111 9 -147 -3 -147 -47 0 -25
3 -29 18 -23 86 33 210 45 239 23 45 -36 71 -71 77 -102 8 -40 26 -58 26 -27
0 12 5 21 10 21 6 0 10 5 10 11 0 5 -4 7 -10 4 -6 -3 -7 1 -4 10 6 14 8 13 20
-4 8 -11 11 -26 8 -34 -3 -8 1 -21 9 -28 22 -23 47 -139 29 -139 -24 0 -31
-55 -28 -212 4 -169 -7 -253 -38 -283 -8 -8 -20 -28 -28 -45 -7 -16 -18 -30
-24 -30 -6 0 -17 -7 -24 -15 -7 -8 -21 -15 -32 -15 -10 0 -21 -6 -24 -14 -3
-8 -22 -17 -42 -21 -20 -3 -47 -13 -60 -21 -26 -17 -198 -48 -219 -39 -8 2
-11 0 -8 -5 10 -17 -17 -11 -73 15 -30 14 -58 25 -62 25 -5 0 -32 16 -62 35
-29 20 -63 38 -74 41 -14 4 -24 16 -28 35 -3 17 -19 44 -36 60 -18 18 -30 41
-31 57 -3 163 -6 201 -15 213 -19 24 -34 154 -22 191 6 18 13 40 15 48 3 11 6
11 12 2 9 -15 133 -8 159 9 14 8 13 9 -8 5 -22 -4 -25 -1 -27 23 -2 26 2 30
33 36 22 4 41 2 49 -5 8 -6 24 -10 37 -8 21 3 20 5 -12 20 -22 11 -60 17 -103
17 -38 0 -72 2 -75 6 -3 3 -1 15 6 25 11 19 9 20 -28 20 -28 0 -40 4 -40 14 0
37 81 80 133 72 72 -12 137 -15 142 -6 10 16 -36 48 -81 55 -25 3 -59 2 -77
-3 -62 -19 -99 -23 -94 -9 3 6 17 44 32 82 50 132 69 170 89 188 12 10 37 33
56 51 19 18 46 37 60 41 14 4 33 16 43 26 10 11 25 19 34 19 9 0 22 8 29 18
13 16 13 16 14 0 0 -23 5 -23 31 3 23 23 39 18 19 -6z m-644 -246 c-8 -19 -17
-43 -21 -53 -3 -10 -8 -16 -11 -13 -3 3 5 28 17 56 12 29 24 50 26 48 2 -3 -3
-20 -11 -38z m-53 -157 c-3 -12 -9 -22 -14 -22 -5 0 -3 11 3 25 13 30 20 28
11 -3z m1104 -74 c-3 -8 -6 -5 -6 6 -1 11 2 17 5 13 3 -3 4 -12 1 -19z m-1197
-165 c-11 -17 -11 -17 -6 0 3 10 6 24 7 30 0 9 2 9 5 0 3 -7 0 -20 -6 -30z
m-23 -105 c-3 -8 -6 -5 -6 6 -1 11 2 17 5 13 3 -3 4 -12 1 -19z m1428 -75 c5
-46 3 -63 -7 -70 -18 -11 -51 -73 -43 -81 3 -3 10 0 16 8 8 13 12 12 24 -4 8
-11 12 -22 9 -25 -3 -3 -8 0 -12 6 -4 6 -15 7 -29 2 -15 -6 -20 -14 -16 -28 4
-16 1 -21 -15 -21 -25 0 -36 25 -18 42 7 7 10 20 8 27 -7 21 27 78 52 86 12 4
16 8 9 11 -7 3 -10 11 -7 18 3 7 1 31 -4 53 -6 26 -6 47 1 59 10 17 10 17 17
-2 4 -10 11 -47 15 -81z m35 2 c0 -42 -21 -135 -31 -135 -14 0 -17 40 -3 51 9
7 14 32 14 71 0 37 4 57 10 53 6 -3 10 -21 10 -40z m-118 -77 c-8 -8 -9 -4 -5
13 4 13 8 18 11 10 2 -7 -1 -18 -6 -23z m128 -153 c0 -8 -2 -15 -4 -15 -2 0
-6 7 -10 15 -3 8 -1 15 4 15 6 0 10 -7 10 -15z m20 -71 c0 -8 -4 -12 -10 -9
-5 3 -10 13 -10 21 0 8 5 12 10 9 6 -3 10 -13 10 -21z m-1279 -45 c-9 -22 -10
-22 -10 -3 -1 11 2 24 6 27 12 12 14 0 4 -24z m1250 -92 c-10 -9 -11 -8 -5 6
3 10 9 15 12 12 3 -3 0 -11 -7 -18z m349 -129 c31 -38 38 -58 20 -58 -5 0 -10
4 -10 9 0 5 -8 12 -19 16 -10 3 -27 27 -37 53 -31 78 -34 79 46 -20z m-1285
-156 c-7 -7 -55 8 -55 17 0 5 13 4 30 -2 16 -6 27 -13 25 -15z m65 -7 l25 -15
-30 6 c-33 7 -58 24 -34 24 7 -1 25 -7 39 -15z m776 -27 c-6 -4 -15 0 -20 9
-5 10 -4 18 5 24 9 5 16 3 20 -9 4 -9 1 -20 -5 -24z m64 -23 c0 -28 -7 -34
-29 -28 -12 3 -17 12 -14 27 6 29 43 30 43 1z m-356 -60 c3 -10 -3 -9 -25 2
-35 18 -37 22 -5 16 14 -3 27 -11 30 -18z m364 -4 c18 -2 15 -15 -9 -30 -18
-11 -23 -11 -31 1 -6 9 -8 8 -6 -7 2 -13 -2 -19 -11 -17 -8 2 -18 -3 -22 -10
-10 -16 -28 -1 -34 31 -3 18 -1 21 15 16 14 -4 20 -2 20 8 0 14 13 16 78 8z
m223 -347 c22 -48 38 -88 36 -90 -9 -9 -82 20 -101 41 -36 39 -46 54 -55 77
-8 20 -4 25 28 40 20 9 40 17 44 17 5 1 26 -38 48 -85z m-292 -1520 c26 -34
28 -67 4 -60 -15 4 -164 26 -179 26 -17 0 3 20 39 38 59 31 110 29 136 -4z
m966 -640 c41 -7 41 -11 1 -16 -33 -4 -37 -1 -56 37 l-19 40 23 -28 c12 -15
35 -30 51 -33z"/>
<path d="M3481 12054 c0 -11 3 -14 6 -6 3 7 2 16 -1 19 -3 4 -6 -2 -5 -13z"/>
<path d="M3535 11950 c-15 -28 -14 -30 3 -30 23 0 42 19 42 42 0 28 -28 21
-45 -12z"/>
<path d="M3138 11933 c7 -3 16 -2 19 1 4 3 -2 6 -13 5 -11 0 -14 -3 -6 -6z"/>
<path d="M3561 11904 c-31 -40 -27 -49 29 -52 50 -3 50 -3 50 27 0 36 1 36 42
15 30 -16 31 -17 13 -30 -17 -13 -17 -14 1 -20 10 -3 30 -10 43 -15 18 -8 26
-6 37 8 7 10 14 21 14 25 0 4 6 5 14 2 21 -8 32 17 12 28 -9 5 -14 13 -11 19
10 15 -24 22 -40 9 -9 -8 -27 -10 -48 -6 -17 4 -55 9 -83 12 -47 5 -53 3 -73
-22z"/>
<path d="M3332 11698 c-18 -18 -15 -35 10 -52 15 -11 25 -12 34 -5 7 6 18 8
24 4 20 -12 10 22 -13 43 -27 25 -38 27 -55 10z"/>
<path d="M3452 11698 c-6 -6 -12 -21 -12 -33 0 -17 6 -21 35 -20 41 2 58 15
53 41 -4 23 -57 31 -76 12z"/>
<path d="M3291 11634 c-1 -22 27 -54 47 -54 20 0 13 18 -9 25 -11 4 -24 16
-29 28 -9 22 -9 22 -9 1z"/>
<path d="M3543 11620 c-28 -22 -29 -30 -4 -23 11 3 22 12 26 20 8 23 3 24 -22
3z"/>
<path d="M3405 11475 c-16 -8 -40 -14 -52 -15 -13 0 -23 -4 -23 -10 0 -5 -12
-10 -26 -10 -18 0 -25 -4 -21 -14 3 -8 -1 -17 -9 -20 -9 -3 -12 -10 -9 -16 9
-14 55 -12 55 3 0 9 3 8 9 -2 7 -11 11 -10 19 6 10 17 23 20 107 21 70 2 103
-2 126 -14 33 -17 59 -13 59 9 0 15 -64 46 -115 54 -19 3 -38 10 -41 14 -7 13
-44 10 -79 -6z"/>
<path d="M3448 11323 c6 -2 18 -2 25 0 6 3 1 5 -13 5 -14 0 -19 -2 -12 -5z"/>
<path d="M3318 12733 c7 -3 16 -2 19 1 4 3 -2 6 -13 5 -11 0 -14 -3 -6 -6z"/>
<path d="M4524 11035 c2 -15 7 -30 13 -33 5 -4 16 -18 22 -30 7 -13 15 -21 19
-18 3 4 -5 25 -18 49 -13 23 -23 44 -21 47 1 2 -2 6 -8 8 -5 2 -8 -9 -7 -23z"/>
<path d="M4560 11027 c0 -1 21 -20 48 -42 43 -35 45 -36 17 -6 -26 29 -65 58
-65 48z"/>
<path d="M4660 10941 c0 -5 7 -12 16 -15 14 -5 15 -4 4 9 -14 17 -20 19 -20 6z"/>
<path d="M6271 10090 c-1 -19 -6 -42 -11 -50 -8 -11 -9 -8 -4 13 15 66 -34 3
-67 -85 -14 -38 -14 -48 -4 -52 16 -6 38 17 27 29 -4 5 -2 5 4 2 25 -14 69 94
61 148 -4 29 -4 29 -6 -5z"/>
<path d="M4481 10074 c0 -11 3 -14 6 -6 3 7 2 16 -1 19 -3 4 -6 -2 -5 -13z"/>
<path d="M6107 9859 c-9 -5 -22 -7 -27 -4 -5 3 -7 -1 -4 -9 5 -14 9 -13 30 1
33 21 34 31 1 12z"/>
<path d="M6042 9838 c2 -6 10 -13 16 -14 7 -1 8 0 2 3 -5 2 -8 9 -4 14 3 5 0
9 -6 9 -7 0 -10 -5 -8 -12z"/>
<path d="M3730 8916 c0 -2 12 -12 28 -21 l27 -18 -19 21 c-17 20 -36 29 -36
18z"/>
<path d="M4060 8801 c0 -5 5 -13 10 -16 6 -3 10 -2 10 4 0 5 -4 13 -10 16 -5
3 -10 2 -10 -4z"/>
<path d="M5683 8715 c0 -22 2 -30 4 -17 2 12 2 30 0 40 -3 9 -5 -1 -4 -23z"/>
<path d="M5582 8660 c0 -14 2 -19 5 -12 2 6 2 18 0 25 -3 6 -5 1 -5 -13z"/>
<path d="M5539 8644 c-25 -65 -69 -198 -65 -201 2 -2 15 32 30 74 15 43 34 93
42 112 8 18 13 36 10 39 -3 2 -11 -8 -17 -24z"/>
<path d="M5584 8500 c0 -52 1 -74 3 -47 2 26 2 68 0 95 -2 26 -3 4 -3 -48z"/>
<path d="M6292 8540 c-41 -28 -76 -50 -78 -50 -3 0 -11 -6 -19 -12 -7 -7 -66
-51 -130 -98 -65 -47 -140 -103 -169 -126 -28 -22 -70 -53 -94 -70 -23 -16
-94 -67 -158 -114 -64 -47 -124 -89 -133 -95 -9 -5 -23 -16 -31 -23 -8 -7 -37
-27 -65 -44 -27 -18 -53 -36 -56 -41 -3 -4 -15 -9 -27 -10 -11 0 -18 -5 -16
-9 3 -4 -4 -8 -14 -8 -11 0 -23 -7 -26 -15 -3 -9 -11 -15 -18 -13 -7 1 -43
-14 -79 -35 -36 -20 -73 -37 -82 -37 -10 0 -17 -4 -17 -10 0 -5 -9 -10 -20
-10 -14 0 -20 7 -20 24 0 16 -7 26 -21 29 -15 4 -20 11 -16 21 4 9 2 16 -3 16
-6 0 -10 -9 -10 -20 0 -28 -20 -25 -21 3 -1 12 -5 2 -9 -23 -7 -36 -5 -50 10
-70 10 -14 25 -24 35 -22 10 2 49 10 87 17 l69 13 -43 -39 c-24 -21 -52 -39
-63 -39 -17 0 -17 -2 -5 -10 9 -6 11 -10 3 -10 -7 0 -10 -7 -6 -16 5 -13 10
-11 33 12 58 61 94 89 265 200 50 32 124 84 165 115 41 30 111 82 155 115 44
32 82 61 85 64 3 3 46 37 95 75 50 38 104 80 120 95 39 32 71 57 230 179 162
125 181 140 175 141 -3 0 -38 -23 -78 -50z m-1037 -739 c3 -5 2 -12 -3 -15 -5
-3 -9 1 -9 9 0 17 3 19 12 6z"/>
<path d="M5683 8505 c0 -33 2 -45 4 -27 2 18 2 45 0 60 -2 15 -4 0 -4 -33z"/>
<path d="M5282 8523 c29 -31 48 -88 48 -145 0 -22 5 -38 11 -38 8 0 10 17 6
55 -6 61 -45 138 -74 149 -13 5 -10 -1 9 -21z"/>
<path d="M2840 8530 c0 -5 5 -10 11 -10 5 0 7 5 4 10 -3 6 -8 10 -11 10 -2 0
-4 -4 -4 -10z"/>
<path d="M7853 8453 c-32 -43 -66 -89 -75 -103 -21 -34 -226 -291 -247 -310
-9 -8 -36 -28 -61 -44 -25 -16 -55 -40 -67 -53 -33 -37 -48 -24 -18 17 32 44
33 64 0 25 -65 -78 -206 -305 -263 -423 -17 -34 -42 -76 -56 -93 -14 -17 -26
-34 -26 -37 0 -4 -13 -16 -29 -27 -21 -13 -27 -23 -20 -31 6 -7 6 -21 -1 -38
-5 -15 -9 -46 -9 -69 1 -34 3 -37 8 -16 6 25 59 79 78 79 5 0 23 30 41 68 43
93 90 173 166 282 14 19 25 41 25 48 1 6 9 12 18 12 12 0 14 3 7 10 -13 13
-44 3 -44 -14 0 -7 -8 -21 -18 -32 -9 -10 -26 -32 -36 -49 -11 -16 -23 -34
-28 -40 -4 -5 -22 -27 -38 -49 -74 -96 9 57 101 186 65 92 123 149 179 178 52
27 211 185 242 240 17 30 34 57 37 60 9 7 101 140 101 146 0 3 19 33 43 67 53
76 60 87 53 87 -3 0 -31 -35 -63 -77z"/>
<path d="M3049 8497 c-59 -39 -117 -181 -107 -259 l3 -26 52 34 c48 33 52 38
58 87 3 29 13 80 22 115 8 35 13 65 11 68 -3 2 -20 -6 -39 -19z"/>
<path d="M2806 8497 c3 -10 9 -15 12 -12 3 3 0 11 -7 18 -10 9 -11 8 -5 -6z"/>
<path d="M4975 8475 c-16 -13 -25 -24 -19 -25 6 0 21 11 34 25 30 32 24 32
-15 0z"/>
<path d="M2680 8470 c0 -5 5 -10 10 -10 6 0 10 5 10 10 0 6 -4 10 -10 10 -5 0
-10 -4 -10 -10z"/>
<path d="M5446 8465 c-3 -9 -6 -22 -5 -28 0 -7 5 -1 10 12 5 13 8 26 5 28 -2
2 -6 -3 -10 -12z"/>
<path d="M2770 8450 c0 -5 5 -10 10 -10 6 0 10 5 10 10 0 6 -4 10 -10 10 -5 0
-10 -4 -10 -10z"/>
<path d="M5408 8409 c-10 -16 -13 -29 -8 -29 5 0 13 7 18 16 8 15 10 15 15 0
5 -11 -2 -18 -26 -25 l-32 -9 32 -1 c33 -1 63 27 63 59 0 13 -1 13 -10 0 -9
-13 -12 -13 -23 2 -11 14 -14 13 -29 -13z"/>
<path d="M4775 8330 c3 -5 10 -10 16 -10 5 0 9 5 9 10 0 6 -7 10 -16 10 -8 0
-12 -4 -9 -10z"/>
<path d="M7600 8333 c0 -5 -21 -21 -48 -38 -46 -30 -47 -30 -19 -33 40 -5 51
1 75 42 17 29 18 36 7 36 -8 0 -15 -3 -15 -7z"/>
<path d="M5636 8231 c-17 -11 -24 -21 -17 -25 11 -7 58 30 50 38 -3 3 -17 -3
-33 -13z"/>
<path d="M7504 8183 c-128 -149 -131 -153 -95 -153 14 0 28 17 47 56 15 30 42
67 60 81 18 13 36 33 39 44 4 11 10 17 14 15 4 -3 8 1 8 9 0 26 -14 16 -73
-52z"/>
<path d="M2213 8130 c0 -47 2 -66 4 -42 2 23 2 61 0 85 -2 23 -4 4 -4 -43z"/>
<path d="M5585 8190 c-3 -5 -13 -10 -21 -10 -8 0 -62 -30 -119 -67 -58 -38
-134 -86 -171 -108 -89 -54 -151 -102 -164 -125 -14 -26 2 -26 25 0 10 11 22
17 26 14 5 -3 12 1 15 9 3 9 19 21 35 27 16 7 29 16 29 21 0 4 18 14 40 20 37
11 45 20 41 42 -1 5 6 6 16 3 12 -4 31 6 56 29 21 19 42 35 47 35 5 0 29 14
53 30 25 17 50 30 56 30 6 0 11 4 11 8 0 5 11 15 25 22 14 7 25 17 25 22 0 11
-18 10 -25 -2z"/>
<path d="M4320 8136 c0 -7 107 -56 121 -56 8 1 -15 14 -50 30 -65 31 -71 33
-71 26z"/>
<path d="M2828 8094 c-35 -40 -52 -106 -53 -204 0 -82 3 -99 21 -122 l21 -27
23 24 c13 14 21 28 17 31 -3 4 0 16 8 28 17 24 20 90 5 133 -6 16 -14 58 -18
93 -7 59 -8 61 -24 44z m-15 -193 c4 -29 2 -40 -4 -30 -8 13 -14 88 -5 78 2
-2 6 -24 9 -48z"/>
<path d="M2222 8000 c0 -14 2 -19 5 -12 2 6 2 18 0 25 -3 6 -5 1 -5 -13z"/>
<path d="M5630 7980 c-9 -6 -10 -10 -3 -10 6 0 15 5 18 10 8 12 4 12 -15 0z"/>
<path d="M5574 7939 c-19 -22 -19 -22 4 -8 12 8 22 17 22 21 0 12 -6 9 -26
-13z"/>
<path d="M2425 7913 c-64 -19 -66 -21 -94 -89 l-24 -57 28 -96 c15 -53 42
-125 60 -161 18 -36 38 -84 44 -107 6 -22 40 -83 75 -134 35 -52 87 -140 116
-195 l51 -102 67 -32 c37 -18 90 -41 117 -52 28 -10 79 -33 115 -50 144 -68
337 -132 493 -163 43 -9 84 -14 90 -11 7 2 4 5 -6 5 -9 1 -35 12 -57 26 -22
14 -42 25 -46 25 -10 0 -232 148 -314 210 -41 31 -92 66 -112 79 -21 12 -38
27 -38 32 0 5 -10 11 -23 14 -13 4 -31 19 -41 36 -17 29 -17 29 8 29 14 0 26
4 26 9 0 16 -52 43 -72 38 -32 -9 -48 3 -48 33 0 19 -10 37 -31 54 -30 26 -56
35 -44 16 3 -5 2 -10 -3 -10 -5 0 -12 14 -14 30 -3 17 -2 30 1 30 3 0 40 -29
81 -65 41 -35 81 -64 89 -65 8 0 -4 13 -25 29 -21 15 -52 40 -67 55 -15 14
-30 26 -33 26 -13 0 -174 192 -174 207 0 30 -20 20 -31 -16 -11 -36 -14 -39
-39 -34 -26 5 -28 3 -35 -44 -6 -42 -8 -45 -16 -25 -5 13 -11 51 -14 84 -5 63
-14 90 -16 47 0 -22 -1 -23 -9 -4 -14 33 -11 191 6 297 8 54 14 102 12 107 -2
5 -25 2 -53 -6z m312 -799 c-3 -3 -12 -4 -19 -1 -8 3 -5 6 6 6 11 1 17 -2 13
-5z"/>
<path d="M5515 7896 c-71 -50 -78 -56 -72 -62 3 -4 22 7 41 24 19 17 43 35 53
40 10 6 16 13 13 15 -3 3 -19 -5 -35 -17z"/>
<path d="M1745 7850 c-4 -7 -4 -15 1 -19 5 -3 9 -10 10 -16 1 -29 17 -64 27
-58 5 3 7 1 3 -5 -3 -6 5 -35 18 -65 13 -30 27 -69 31 -87 l7 -31 -40 20 c-22
11 -74 24 -120 28 -76 8 -80 8 -64 -8 12 -11 19 -13 25 -5 5 7 12 5 22 -8 7
-10 18 -16 22 -13 5 3 15 2 23 -4 10 -5 -17 -8 -75 -8 -52 1 -78 4 -61 8 39 8
38 21 -5 50 -30 20 -42 22 -103 17 -43 -3 -75 -11 -87 -22 -10 -9 -33 -18 -51
-20 -32 -3 -32 -3 -13 12 19 16 19 16 -6 10 -76 -17 -124 -55 -100 -79 5 -5
44 -14 86 -20 l77 -11 -4 -64 c-2 -36 -9 -67 -16 -71 -32 -20 0 -28 321 -80
49 -8 67 3 67 41 0 7 4 19 9 27 14 22 71 -30 153 -139 88 -117 86 -115 94
-107 3 3 -27 44 -66 92 -71 84 -82 108 -42 86 12 -6 32 -11 45 -11 l24 0 -39
76 c-41 77 -80 224 -79 296 1 35 -42 143 -71 182 -11 14 -17 16 -23 6z m-250
-240 c3 -5 1 -10 -4 -10 -6 0 -11 5 -11 10 0 6 2 10 4 10 3 0 8 -4 11 -10z
m179 -196 c9 -8 16 -22 16 -29 0 -15 -26 -45 -39 -45 -4 0 -16 9 -26 20 -15
17 -16 24 -7 45 13 29 34 32 56 9z"/>
<path d="M7383 7785 c0 -22 2 -30 4 -17 2 12 2 30 0 40 -3 9 -5 -1 -4 -23z"/>
<path d="M5616 7415 c-69 -52 -128 -95 -130 -95 -2 0 -6 17 -10 39 -8 52 -23
61 -103 66 -58 3 -64 2 -43 -8 42 -20 83 -49 122 -85 27 -26 41 -32 50 -25 7
6 67 52 133 103 141 108 131 100 117 100 -5 0 -67 -43 -136 -95z"/>
<path d="M6210 7415 c-7 -8 -8 -15 -2 -15 5 0 15 7 22 15 7 8 8 15 2 15 -5 0
-15 -7 -22 -15z"/>
<path d="M6100 7352 c-75 -52 -317 -196 -360 -214 -19 -9 -48 -20 -63 -27 -15
-6 -49 -11 -75 -11 l-47 1 40 14 c22 8 41 15 43 15 1 0 2 4 2 9 0 5 -16 4 -36
-2 -29 -9 -37 -8 -46 4 -7 10 -8 4 -5 -23 3 -21 22 -60 45 -90 21 -29 46 -66
55 -83 l16 -30 1 39 c0 33 -6 45 -37 75 l-38 35 40 7 c21 3 41 12 43 18 2 6
10 11 18 11 27 0 138 59 289 154 50 31 106 64 125 75 19 10 44 28 54 40 31 35
-2 26 -64 -17z"/>
<path d="M6889 7303 l-34 -38 38 34 c34 33 42 41 34 41 -2 0 -19 -17 -38 -37z"/>
<path d="M1680 7270 c0 -6 7 -13 16 -17 8 -3 13 -11 10 -18 -2 -7 30 -82 73
-167 43 -84 100 -211 128 -283 115 -298 133 -345 133 -360 0 -8 5 -15 10 -15
6 0 10 -7 10 -15 0 -26 99 -250 107 -242 2 3 -4 22 -15 44 -11 21 -27 63 -37
93 -9 30 -23 69 -30 85 -8 17 -25 70 -39 119 -28 97 -35 115 -96 286 -23 63
-57 160 -77 215 -30 85 -46 114 -109 193 -74 92 -84 101 -84 82z"/>
<path d="M6808 7243 c6 -2 18 -2 25 0 6 3 1 5 -13 5 -14 0 -19 -2 -12 -5z"/>
<path d="M2930 7176 c0 -2 7 -7 16 -10 8 -3 12 -2 9 4 -6 10 -25 14 -25 6z"/>
<path d="M6225 7070 c-13 -6 -15 -9 -5 -9 8 0 22 4 30 9 18 12 2 12 -25 0z"/>
<path d="M6120 7056 c0 -2 11 -6 25 -8 13 -3 22 -1 19 3 -5 9 -44 13 -44 5z"/>
<path d="M5685 7009 c3 -4 19 -7 34 -6 36 3 30 11 -10 13 -16 1 -26 -2 -24 -7z"/>
<path d="M2643 6940 c0 -25 2 -35 4 -22 2 12 2 32 0 45 -2 12 -4 2 -4 -23z"/>
<path d="M6973 6850 c0 -30 2 -43 4 -27 2 15 2 39 0 55 -2 15 -4 2 -4 -28z"/>
<path d="M2490 6643 c0 -23 16 -48 23 -37 5 10 -9 54 -18 54 -3 0 -5 -8 -5
-17z"/>
<path d="M2156 6605 c4 -11 18 -58 31 -105 26 -91 60 -179 74 -194 12 -13 -5
45 -22 75 -8 13 -14 31 -15 40 -2 29 -44 153 -60 179 -10 16 -13 18 -8 5z"/>
<path d="M3650 6614 c0 -3 32 -43 70 -89 39 -46 70 -86 70 -88 0 -3 16 -22 36
-43 20 -22 43 -50 52 -64 9 -14 25 -31 34 -38 10 -7 18 -19 18 -27 0 -8 9 -19
21 -25 23 -13 23 -12 -41 -92 l-35 -43 40 31 c45 34 126 74 151 74 9 0 23 8
31 18 8 9 12 12 9 6 -8 -16 20 -39 29 -24 3 5 11 10 17 10 6 0 5 -7 -3 -17
-13 -16 -12 -17 3 -5 9 8 15 19 12 26 -2 6 6 21 18 32 13 11 35 35 50 53 17
19 33 29 39 25 7 -4 9 -3 5 4 -3 6 3 20 16 31 12 12 19 24 15 27 -3 3 -43 6
-89 6 l-83 -1 -48 -50 c-27 -28 -49 -51 -51 -51 -1 0 -27 31 -59 69 -45 55
-63 70 -92 75 -32 6 -36 10 -34 34 5 46 -18 72 -97 108 -71 32 -104 41 -104
28z"/>
<path d="M2514 6565 c9 -16 31 -67 49 -111 19 -45 46 -97 60 -115 14 -19 39
-61 56 -94 26 -51 73 -115 86 -115 6 0 -55 103 -113 192 -30 45 -66 112 -80
148 -15 36 -37 79 -50 96 l-23 29 15 -30z"/>
<path d="M2366 6483 c20 -54 39 -107 43 -118 11 -32 44 -84 74 -117 15 -17 27
-34 27 -39 0 -5 5 -9 11 -9 7 0 22 -11 35 -25 13 -14 28 -25 34 -25 6 0 8 -4
5 -10 -4 -6 5 -10 21 -10 l27 0 -35 28 c-64 50 -130 116 -152 152 -12 19 -42
86 -66 148 -24 62 -47 115 -52 118 -4 3 8 -39 28 -93z"/>
<path d="M4151 6536 c2 -2 14 -8 26 -14 17 -9 22 -9 27 3 4 11 -2 15 -26 15
-17 0 -29 -2 -27 -4z"/>
<path d="M4134 6511 c8 -12 -19 -21 -66 -21 -27 0 -38 -4 -35 -12 6 -18 62
-13 110 8 33 15 36 19 21 25 -27 11 -36 10 -30 0z"/>
<path d="M2802 6470 c0 -19 2 -27 5 -17 2 9 2 25 0 35 -3 9 -5 1 -5 -18z"/>
<path d="M7275 6419 c-12 -19 3 -22 27 -5 l22 16 -21 0 c-12 0 -25 -5 -28 -11z"/>
<path d="M4470 6386 c0 -2 8 -10 18 -17 15 -13 16 -12 3 4 -13 16 -21 21 -21
13z"/>
<path d="M7220 6365 c-13 -14 -19 -25 -13 -25 5 0 20 11 33 25 13 14 19 25 13
25 -5 0 -20 -11 -33 -25z"/>
<path d="M4510 6356 c0 -2 8 -10 18 -17 15 -13 16 -12 3 4 -13 16 -21 21 -21
13z"/>
<path d="M2110 6338 c0 -7 48 -119 53 -124 3 -3 8 8 12 25 5 26 1 38 -22 65
-23 29 -43 44 -43 34z"/>
<path d="M7155 6330 c3 -5 12 -7 20 -3 21 7 19 13 -6 13 -11 0 -18 -4 -14 -10z"/>
<path d="M4550 6327 c0 -3 17 -17 37 -33 20 -15 33 -23 29 -16 -8 13 -66 56
-66 49z"/>
<path d="M2287 6266 c10 -18 113 -99 113 -89 0 9 -105 103 -115 103 -3 0 -2
-6 2 -14z"/>
<path d="M4690 6195 c7 -9 15 -13 17 -11 7 7 -7 26 -19 26 -6 0 -6 -6 2 -15z"/>
<path d="M4050 6108 c-90 -94 -101 -108 -39 -50 l46 43 109 -128 c61 -70 141
-165 178 -210 38 -45 73 -80 79 -76 6 3 7 1 3 -5 -4 -6 10 -30 32 -54 21 -24
130 -151 242 -282 l203 -240 -8 90 -7 89 -122 143 c-66 79 -168 199 -225 265
-57 67 -171 203 -253 302 -83 99 -153 183 -157 186 -3 3 -40 -30 -81 -73z"/>
<path d="M6870 6138 c0 -38 3 -46 15 -42 8 4 15 2 15 -4 0 -11 69 -46 77 -39
5 6 -14 31 -69 91 l-37 41 -1 -47z"/>
<path d="M2030 6147 c0 -8 -2 -21 -3 -29 -2 -7 -2 -9 1 -5 2 4 10 0 18 -10 12
-16 12 -13 2 17 -13 42 -18 49 -18 27z"/>
<path d="M2165 6130 c-3 -5 6 -29 20 -52 15 -24 24 -34 20 -23 -4 11 -10 28
-12 38 -3 9 -10 17 -15 17 -6 0 -8 7 -4 15 6 17 0 20 -9 5z"/>
<path d="M2672 6123 c-9 -3 -7 -10 9 -24 12 -10 26 -19 31 -19 4 0 8 -7 8 -16
0 -9 7 -14 18 -13 23 4 62 -10 62 -22 0 -5 6 -9 13 -9 7 0 20 -9 30 -20 18
-22 26 -24 44 -12 8 5 -7 29 -44 75 -37 44 -59 64 -67 58 -16 -12 -75 -19 -73
-8 2 12 -14 17 -31 10z"/>
<path d="M2532 5819 c2 -164 0 -299 -4 -299 -5 0 -8 -71 -9 -157 0 -121 -3
-153 -11 -135 -10 21 -28 30 -28 15 0 -8 35 -85 56 -125 8 -14 14 -33 14 -42
0 -9 5 -16 10 -16 6 0 8 -10 4 -24 -4 -18 1 -31 18 -48 18 -18 23 -32 21 -71
-2 -52 0 -53 54 -6 39 32 56 64 48 89 -3 10 1 35 9 55 9 21 13 42 9 49 -3 6
-3 8 1 4 4 -3 50 29 102 73 52 43 99 79 105 79 6 0 8 7 5 16 -3 8 -2 12 4 9 5
-3 25 5 42 18 18 13 60 40 93 60 94 58 100 64 85 82 -7 9 -16 12 -19 8 -3 -5
-30 -26 -58 -48 -29 -21 -53 -43 -53 -48 0 -4 -4 -6 -10 -2 -5 3 -18 -3 -29
-14 -11 -11 -22 -16 -26 -13 -4 4 -5 2 -3 -5 2 -6 0 -10 -3 -10 -12 3 -49 -35
-43 -44 3 -5 1 -9 -5 -9 -5 0 -23 -12 -40 -26 -17 -14 -35 -23 -40 -20 -5 3
-17 -2 -28 -12 -10 -9 -13 -13 -6 -8 24 16 23 0 -1 -23 -26 -24 -76 -35 -76
-17 0 6 -6 4 -13 -4 -14 -18 -73 -60 -83 -60 -4 0 -4 228 0 506 l7 506 -21 -7
c-11 -3 -34 0 -50 9 l-31 15 3 -300z m483 -479 c-3 -5 -12 -10 -18 -10 -7 0
-6 4 3 10 19 12 23 12 15 0z m-398 -442 c-3 -8 -6 -5 -6 6 -1 11 2 17 5 13 3
-3 4 -12 1 -19z"/>
<path d="M4758 6084 c-7 -52 0 -60 24 -28 l21 26 -20 20 -21 20 -4 -38z"/>
<path d="M2067 6048 c7 -28 33 -67 33 -50 0 14 -28 72 -34 72 -2 0 -2 -10 1
-22z"/>
<path d="M1987 6033 c-4 -3 -7 -11 -7 -17 0 -6 5 -5 12 2 6 6 9 14 7 17 -3 3
-9 2 -12 -2z"/>
<path d="M2215 6010 c3 -6 2 -10 -2 -10 -11 0 -11 -45 0 -56 4 -4 7 8 8 27 l1
34 9 -35 c5 -19 10 -45 11 -57 1 -12 6 -19 10 -17 4 3 8 1 8 -5 0 -5 -6 -12
-12 -14 -8 -3 -6 -6 5 -6 20 -1 22 12 6 40 -9 17 -13 37 -18 85 0 7 -8 15 -17
18 -8 3 -12 2 -9 -4z"/>
<path d="M2095 5956 c-10 -19 -16 -38 -12 -42 4 -4 7 0 7 9 0 8 7 23 16 31 8
9 14 21 12 27 -2 6 -12 -5 -23 -25z"/>
<path d="M3879 5933 l-24 -28 28 24 c25 23 32 31 24 31 -2 0 -14 -12 -28 -27z"/>
<path d="M6833 5943 c-21 -8 -15 -17 22 -37 19 -11 42 -30 50 -43 9 -13 20
-21 25 -18 5 3 12 -10 16 -30 8 -46 24 -45 24 3 0 78 -78 149 -137 125z"/>
<path d="M2066 5874 c-4 -14 -5 -28 -3 -31 3 -2 8 8 11 23 4 14 5 28 3 31 -3
2 -8 -8 -11 -23z"/>
<path d="M3824 5878 l-19 -23 23 19 c12 11 22 21 22 23 0 8 -8 2 -26 -19z"/>
<path d="M3759 5813 c-13 -16 -12 -17 4 -4 9 7 17 15 17 17 0 8 -8 3 -21 -13z"/>
<path d="M2286 5807 c3 -10 9 -15 12 -12 3 3 0 11 -7 18 -10 9 -11 8 -5 -6z"/>
<path d="M3466 5726 c-53 -52 -105 -97 -116 -101 -11 -3 -25 -18 -32 -33 -7
-14 -24 -29 -37 -32 -22 -5 -22 -6 -7 -20 16 -12 29 -2 137 106 110 109 168
174 156 174 -3 0 -48 -42 -101 -94z"/>
<path d="M6915 5811 c-3 -5 -1 -12 5 -16 5 -3 10 1 10 9 0 18 -6 21 -15 7z"/>
<path d="M6848 5788 c7 -9 6 -19 -4 -32 -8 -11 -14 -25 -14 -30 0 -6 7 -2 15
8 25 33 28 11 5 -34 -12 -23 -19 -44 -17 -47 3 -2 14 15 25 40 12 27 28 46 41
50 31 8 34 -6 11 -62 -26 -66 -16 -66 14 -1 22 47 24 49 30 26 3 -13 1 -37 -4
-53 -8 -23 -8 -25 2 -12 7 9 19 14 26 12 16 -6 15 7 -3 31 -8 11 -15 36 -16
55 0 29 -2 32 -9 16 -7 -18 -9 -18 -15 -3 -9 22 -36 33 -28 11 5 -13 3 -14
-15 -4 -12 7 -22 16 -22 20 0 5 -7 12 -16 15 -13 5 -14 3 -6 -6z"/>
<path d="M2297 5760 c3 -11 9 -20 15 -20 5 0 4 9 -2 20 -6 11 -12 20 -14 20
-2 0 -2 -9 1 -20z"/>
<path d="M2330 5678 c0 -9 5 -20 10 -23 13 -8 13 5 0 25 -8 13 -10 13 -10 -2z"/>
<path d="M2351 5630 c0 -8 4 -22 9 -30 12 -18 12 -2 0 25 -6 13 -9 15 -9 5z"/>
<path d="M6801 5593 c-1 -6 -4 -20 -7 -30 -5 -17 -5 -17 6 0 6 10 9 23 6 30
-3 9 -5 9 -5 0z"/>
<path d="M6690 5577 c0 -7 16 -28 35 -47 31 -30 51 -81 25 -65 -20 12 -59 15
-65 5 -3 -5 -18 -9 -33 -9 -24 2 -24 2 -4 6 30 6 28 20 -5 26 -81 16 -163 37
-198 51 -50 19 -142 22 -127 4 11 -15 228 -446 262 -523 13 -27 50 -106 83
-175 33 -69 95 -199 137 -290 69 -147 80 -166 105 -170 21 -4 30 -14 40 -44 8
-22 11 -52 8 -67 -4 -20 10 -62 50 -151 55 -124 68 -173 102 -398 9 -57 18
-106 20 -108 3 -3 -2 238 -7 363 -2 43 33 147 57 167 19 16 19 18 3 47 -17 30
-17 30 23 78 37 44 89 128 131 213 18 35 18 35 12 5 -11 -58 -50 -141 -93
-198 -24 -32 -41 -60 -38 -64 10 -9 33 14 83 85 62 86 84 147 91 251 3 47 10
98 16 113 11 25 14 26 62 22 48 -5 118 -18 159 -31 12 -3 17 -1 14 7 -4 13
-113 46 -185 56 -46 7 -52 14 -28 34 8 7 15 28 15 46 l0 34 49 0 c38 0 56 6
78 24 23 20 25 26 12 31 -8 3 -31 -1 -50 -10 l-34 -16 34 6 c41 6 36 -2 -8
-15 -17 -5 -31 -5 -31 0 0 5 -17 6 -37 3 -33 -6 -36 -4 -29 13 20 50 17 63
-19 86 -32 21 -35 27 -31 58 l5 35 -11 -33 c-8 -24 -15 -31 -27 -27 -15 6 -30
11 -76 22 -12 2 -36 -7 -59 -22 -38 -25 -41 -26 -70 -12 -50 24 -155 126 -186
181 -26 44 -30 61 -30 128 0 42 4 79 9 82 5 4 19 -6 30 -21 11 -16 21 -23 21
-17 0 7 29 -4 65 -23 36 -19 109 -49 162 -67 54 -18 126 -47 161 -64 34 -17
62 -27 62 -23 0 8 -8 12 -116 60 -39 17 -77 31 -84 31 -19 0 -183 80 -192 94
-4 6 -13 11 -20 12 -43 4 -64 20 -59 47 1 5 -3 6 -8 3 -14 -9 -42 5 -34 18 3
6 3 8 -1 4 -16 -14 -62 15 -97 61 -20 26 -55 58 -78 69 -49 26 -51 26 -51 9z
m-280 -97 c-14 -11 -29 -20 -35 -20 -5 0 4 9 20 20 38 25 48 25 15 0z m160 -4
c0 -2 -8 -10 -17 -17 -16 -13 -17 -12 -4 4 13 16 21 21 21 13z m234 -91 c3 -8
17 -15 31 -15 14 0 25 -4 25 -9 0 -14 -23 -19 -42 -9 -20 10 -43 48 -29 48 5
0 11 -7 15 -15z m-164 -130 c11 -13 10 -14 -4 -9 -9 3 -16 10 -16 15 0 13 6
11 20 -6z m280 -163 c0 -12 -7 -9 -25 13 -33 40 -33 69 0 32 14 -15 25 -36 25
-45z m-94 11 c-7 -7 -26 7 -26 19 0 6 6 6 15 -2 9 -7 13 -15 11 -17z m459
-113 c3 -5 1 -10 -4 -10 -6 0 -11 5 -11 10 0 6 2 10 4 10 3 0 8 -4 11 -10z
m-343 -64 c2 -19 0 -32 -4 -30 -8 5 -12 64 -4 64 2 0 6 -15 8 -34z m68 9 c12
-13 40 -36 62 -51 21 -15 36 -29 34 -32 -5 -4 -121 82 -131 98 -12 20 12 9 35
-15z m186 -36 c19 -22 19 -22 -3 -10 -13 6 -23 16 -23 21 0 15 5 12 26 -11z
m-247 -46 c12 -14 19 -28 16 -31 -6 -7 -34 17 -46 40 -15 28 6 22 30 -9z m157
-140 c-7 -7 -26 7 -26 19 0 6 6 6 15 -2 9 -7 13 -15 11 -17z m-111 -113 c3 -5
2 -10 -4 -10 -5 0 -13 5 -16 10 -3 6 -2 10 4 10 5 0 13 -4 16 -10z m0 -40 c-3
-5 -11 -10 -16 -10 -6 0 -7 5 -4 10 3 6 11 10 16 10 6 0 7 -4 4 -10z m-45 -20
c13 -8 13 -10 -2 -10 -9 0 -20 5 -23 10 -8 13 5 13 25 0z m5 -30 c8 -13 -5
-13 -25 0 -13 8 -13 10 2 10 9 0 20 -4 23 -10z m35 -10 c0 -5 -2 -10 -4 -10
-3 0 -8 5 -11 10 -3 6 -1 10 4 10 6 0 11 -4 11 -10z m64 -15 c3 -8 1 -15 -4
-15 -6 0 -10 7 -10 15 0 8 2 15 4 15 2 0 6 -7 10 -15z m-84 -20 c0 -8 -2 -15
-4 -15 -2 0 -6 7 -10 15 -3 8 -1 15 4 15 6 0 10 -7 10 -15z m-20 -59 c-4 -4
-21 -4 -37 2 -28 10 -28 10 9 8 21 0 33 -5 28 -10z m100 -39 c0 -2 -9 -12 -20
-22 -24 -21 -27 -14 -4 9 15 15 24 20 24 13z m52 -109 c-6 -6 -7 0 -4 19 5 21
7 23 10 9 2 -10 0 -22 -6 -28z m-115 -30 c-3 -7 -5 -2 -5 12 0 14 2 19 5 13 2
-7 2 -19 0 -25z m111 -134 c-3 -14 -5 -12 -10 9 -3 19 -2 25 4 19 6 -6 8 -18
6 -28z"/>
<path d="M2381 5529 c-1 -15 8 -34 20 -45 l22 -19 -15 30 c-9 17 -18 37 -21
45 -3 9 -6 5 -6 -11z"/>
<path d="M6840 5494 c0 -8 5 -12 10 -9 6 4 8 11 5 16 -9 14 -15 11 -15 -7z"/>
<path d="M2410 5453 c5 -2 10 -19 10 -37 0 -19 8 -40 19 -50 18 -16 18 -16 1
36 -9 28 -22 53 -29 54 -6 1 -7 0 -1 -3z"/>
<path d="M7586 5436 c3 -8 13 -17 22 -21 13 -5 13 -2 -3 15 -21 24 -26 25 -19
6z"/>
<path d="M3176 5394 c-3 -8 -2 -13 3 -10 4 3 19 -6 31 -19 35 -37 45 -30 14
10 -29 39 -39 43 -48 19z"/>
<path d="M4895 5365 c5 -11 10 -42 11 -69 2 -27 7 -52 12 -55 4 -3 18 -23 31
-44 12 -20 30 -43 40 -50 9 -6 25 -23 34 -37 33 -47 17 4 -33 104 -43 89 -116
205 -95 151z"/>
<path d="M7560 5330 c-7 -17 -10 -33 -8 -36 3 -3 11 9 17 27 14 42 7 49 -9 9z"/>
<path d="M2455 5310 c2 -30 20 -59 30 -49 6 7 -17 79 -25 79 -4 0 -6 -14 -5
-30z"/>
<path d="M7517 5230 c-15 -28 -22 -48 -17 -45 13 8 53 86 47 91 -2 2 -16 -18
-30 -46z"/>
<path d="M7465 5190 c-10 -11 -14 -20 -9 -20 5 0 15 9 22 20 7 11 11 20 9 20
-2 0 -12 -9 -22 -20z"/>
<path d="M2753 5175 c0 -8 4 -15 9 -15 4 0 8 4 8 9 0 6 -4 12 -8 15 -5 3 -9
-1 -9 -9z"/>
<path d="M2485 4891 c1 -21 5 -43 8 -48 8 -13 -21 -73 -34 -73 -6 0 -7 -4 -4
-10 3 -5 1 -10 -4 -10 -6 0 -11 -7 -11 -15 0 -8 3 -15 8 -15 9 1 91 77 122
115 l25 30 -29 -25 c-22 -19 -28 -21 -23 -8 4 10 2 17 -5 15 -5 -1 -17 17 -26
41 -20 52 -30 54 -27 3z"/>
<path d="M2707 4764 l-69 -64 47 0 c40 0 52 5 76 31 16 17 29 41 29 53 0 48
-15 44 -83 -20z"/>
<path d="M5097 4303 c-9 -93 -26 -253 -37 -358 -10 -104 -22 -209 -25 -232
l-6 -43 -50 0 c-47 0 -52 3 -105 58 -55 55 -55 55 -14 7 23 -27 57 -63 76 -78
19 -16 32 -33 28 -38 -3 -5 0 -8 8 -7 7 2 12 -5 12 -14 -1 -10 2 -16 6 -13 4
3 14 -3 21 -12 12 -14 12 -16 -1 -9 -8 4 -6 0 4 -8 19 -16 19 -17 -10 -47 -47
-49 -59 -52 -92 -24 -36 30 -47 12 -33 -57 4 -22 281 -50 345 -34 31 8 56 60
56 118 0 35 -4 41 -30 51 -22 8 -30 18 -32 37 -1 32 -3 41 -13 63 -4 9 -4 24
-1 33 4 11 -1 18 -14 21 -24 7 -25 14 -5 203 23 210 34 332 35 356 0 12 -15
44 -33 70 -18 27 -41 66 -50 87 -10 20 -19 37 -20 37 -2 0 -10 -75 -20 -167z
m20 -435 c-3 -8 -6 -5 -6 6 -1 11 2 17 5 13 3 -3 4 -12 1 -19z m-10 -183 c0
-9 -10 -15 -24 -15 -20 0 -22 2 -11 15 17 19 35 19 35 0z"/>
<path d="M6909 4346 c14 -14 27 -26 29 -26 10 0 -26 44 -39 48 -8 3 -3 -7 10
-22z"/>
<path d="M1510 3969 c-41 -44 -62 -58 -83 -59 -19 0 -27 -4 -24 -12 2 -7 12
-11 22 -10 12 2 0 -16 -33 -50 -37 -38 -52 -61 -52 -81 0 -36 18 -43 163 -57
137 -13 168 -7 232 46 39 32 46 42 43 68 -3 28 -6 31 -35 31 -29 0 -33 3 -33
26 0 34 -32 62 -70 62 -27 0 -30 3 -30 34 0 18 -4 33 -9 33 -5 0 -16 6 -23 13
-11 12 -22 4 -68 -44z m129 -116 c11 -20 -3 -53 -23 -53 -7 0 -21 9 -31 20
-15 16 -15 22 -5 35 17 20 47 19 59 -2z"/>
<path d="M6849 3563 c5 -10 20 -29 33 -43 13 -14 39 -46 56 -72 18 -27 37 -48
43 -48 12 0 -45 85 -93 139 -40 43 -55 53 -39 24z"/>
<path d="M7010 3482 c0 -4 11 -20 25 -37 l25 -30 -11 32 c-9 27 -39 55 -39 35z"/>
<path d="M6970 3376 c0 -10 28 -13 41 -5 10 6 7 9 -13 9 -16 0 -28 -2 -28 -4z"/>
<path d="M6220 3343 c0 -33 182 -163 228 -163 13 0 32 -5 43 -10 10 -6 19 -7
19 -3 -1 4 -43 28 -95 52 -51 24 -116 64 -144 88 -28 25 -51 41 -51 36z"/>
<path d="M6577 3123 c24 -61 109 -203 123 -203 5 0 -8 26 -29 58 -21 31 -50
81 -65 110 -25 50 -43 71 -29 35z"/>
<path d="M6280 3111 c0 -9 71 -43 77 -37 3 2 -14 14 -36 24 -23 11 -41 17 -41
13z"/>
<path d="M6165 3080 c10 -11 20 -20 23 -20 3 0 -3 9 -13 20 -10 11 -20 20 -23
20 -3 0 3 -9 13 -20z"/>
<path d="M6416 3084 c-23 -23 -20 -30 4 -9 11 10 20 20 20 22 0 7 -9 2 -24
-13z"/>
<path d="M7138 3045 c-2 -3 -19 -7 -37 -9 -18 -2 -38 -9 -44 -16 -10 -10 -8
-12 7 -6 11 4 46 9 78 13 58 6 60 5 87 -27 21 -26 32 -32 47 -25 17 7 17 8 2
12 -21 5 -24 23 -5 23 6 1 -4 9 -23 20 -32 18 -100 27 -112 15z"/>
<path d="M6550 3030 c0 -5 5 -10 11 -10 5 0 7 5 4 10 -3 6 -8 10 -11 10 -2 0
-4 -4 -4 -10z"/>
<path d="M6570 2985 c16 -43 41 -87 46 -82 6 5 -43 107 -51 107 -2 0 0 -11 5
-25z"/>
<path d="M7005 3000 c-3 -5 3 -10 14 -10 12 0 21 5 21 10 0 6 -6 10 -14 10 -8
0 -18 -4 -21 -10z"/>
<path d="M6351 2985 c-1 -6 -20 -9 -46 -7 -58 5 -59 -13 -2 -29 23 -6 47 -13
54 -15 7 -2 19 -20 28 -41 25 -60 135 -233 156 -244 25 -13 24 -5 -4 23 -31
32 -121 177 -114 185 4 3 10 -3 14 -13 13 -37 123 -171 123 -150 0 11 -128
168 -135 166 -9 -2 -54 74 -65 110 -5 14 -9 20 -9 15z"/>
<path d="M6960 2980 c0 -5 -11 -10 -25 -10 -14 0 -25 -5 -25 -11 0 -6 9 -8 23
-4 27 9 57 35 39 35 -7 0 -12 -4 -12 -10z"/>
<path d="M6860 2935 c-14 -8 -34 -15 -45 -15 -20 -1 -20 -1 0 -9 20 -8 84 16
85 32 0 10 -12 8 -40 -8z"/>
<path d="M6620 2881 c0 -5 5 -13 10 -16 6 -3 10 -2 10 4 0 5 -4 13 -10 16 -5
3 -10 2 -10 -4z"/>
<path d="M6768 2883 c-14 -2 -34 -15 -45 -29 -10 -14 -28 -37 -41 -51 -43 -47
-73 -100 -73 -129 0 -73 20 -134 43 -134 6 0 8 6 5 13 -15 40 -18 59 -10 54 6
-4 8 4 5 18 -8 43 19 123 59 180 22 30 46 55 53 55 7 0 21 7 32 15 10 8 15 14
9 13 -5 0 -22 -3 -37 -5z"/>
<path d="M7360 2604 c-57 -25 -108 -48 -112 -52 -4 -4 -4 -21 1 -37 11 -42 7
-49 -62 -94 -34 -22 -82 -65 -107 -95 -24 -30 -56 -58 -69 -61 -14 -4 -36 -15
-51 -25 -14 -10 -50 -23 -80 -28 -80 -15 -110 0 -133 68 -22 62 -37 56 -42
-17 -2 -26 -9 -62 -16 -80 -10 -25 -10 -39 0 -71 8 -22 11 -52 7 -66 -4 -15
-1 -44 5 -65 10 -33 8 -44 -15 -96 -24 -51 -27 -69 -25 -157 1 -54 -1 -101 -4
-105 -11 -10 -19 48 -15 98 3 28 2 47 -2 42 -13 -13 -38 -114 -45 -178 -7 -56
-5 -63 19 -92 18 -22 26 -42 26 -70 0 -40 37 -93 64 -93 7 0 21 -17 30 -38 24
-54 70 -99 108 -107 44 -10 67 -31 90 -84 10 -24 36 -60 57 -80 26 -25 44 -54
54 -87 8 -28 26 -72 40 -100 14 -27 28 -68 32 -92 4 -23 22 -65 41 -92 19 -27
34 -53 34 -58 0 -25 62 -91 98 -105 29 -12 54 -34 89 -81 37 -50 59 -70 97
-87 27 -11 66 -32 86 -45 26 -17 60 -27 113 -33 48 -6 88 -16 109 -30 82 -52
88 -53 312 -49 156 3 231 9 286 22 103 25 216 65 231 82 6 8 17 14 25 14 7 0
17 6 21 13 4 6 20 18 35 26 15 8 44 31 66 51 49 47 58 96 37 205 -17 88 -25
107 -35 79 -5 -13 -9 -4 -14 31 -10 67 -76 205 -135 279 -26 34 -62 88 -80
121 -18 33 -54 85 -79 115 -26 30 -65 82 -87 115 -22 33 -46 66 -53 73 -7 8
-20 28 -30 45 l-17 32 -5 -45 c-3 -30 -7 -39 -12 -28 -4 9 -4 32 -1 51 6 37
-10 77 -30 77 -7 0 -48 72 -91 160 -43 88 -91 172 -107 187 -20 20 -27 33 -23
50 3 12 -1 32 -10 45 -9 12 -16 33 -16 45 0 13 -11 51 -25 85 -30 75 -23 90
32 64 141 -67 264 -186 384 -371 117 -180 128 -194 162 -211 17 -9 69 -48 116
-85 47 -38 89 -69 93 -69 22 0 -1 26 -77 87 -91 72 -161 156 -245 293 -74 121
-122 181 -219 271 -87 81 -217 159 -267 159 -13 0 -24 6 -24 13 0 9 24 18 70
26 49 9 80 21 101 39 29 24 31 29 27 83 -13 178 -214 244 -345 112 -39 -38
-44 -41 -53 -24 -13 26 -74 60 -134 75 -45 12 -51 17 -65 54 -8 23 -20 42 -26
41 -5 0 -57 -20 -115 -45z m631 -104 c30 -22 72 -100 67 -126 -6 -31 -52 -55
-115 -61 -67 -6 -63 -9 -78 65 -4 18 -22 48 -41 66 -38 37 -36 43 27 71 42 19
101 12 140 -15z m-681 -142 c0 -19 -2 -20 -10 -8 -13 19 -13 30 0 30 6 0 10
-10 10 -22z m190 -48 c0 -13 -71 -33 -100 -28 -24 4 -24 5 5 12 17 4 37 11 45
16 20 12 50 12 50 0z m38 -36 c-15 -8 -49 -17 -75 -19 -52 -6 -43 1 27 21 61
17 81 16 48 -2z m-16 -76 c-5 -5 -25 -11 -43 -14 -19 -2 -43 -5 -54 -6 -37 -5
-30 16 9 27 44 13 103 8 88 -7z m-303 -48 c33 -42 29 -57 -5 -17 -36 40 -47
57 -37 57 5 0 24 -18 42 -40z m291 -40 c0 -5 -5 -10 -11 -10 -5 0 -7 5 -4 10
3 6 8 10 11 10 2 0 4 -4 4 -10z m-205 -58 c-7 -7 -45 29 -45 41 0 6 11 0 25
-13 14 -13 23 -26 20 -28z m215 -6 c0 -3 -4 -8 -10 -11 -5 -3 -10 -1 -10 4 0
6 5 11 10 11 6 0 10 -2 10 -4z m-732 -248 c16 -35 52 -101 81 -147 28 -46 50
-85 48 -88 -7 -6 -113 175 -142 240 -13 31 -23 57 -20 57 3 0 18 -28 33 -62z
m126 -14 c3 -8 2 -12 -4 -9 -6 3 -10 10 -10 16 0 14 7 11 14 -7z m551 -222
c-8 -8 -25 10 -25 26 0 13 2 13 14 -4 8 -10 13 -21 11 -22z m270 18 c3 -5 -1
-10 -10 -10 -9 0 -13 5 -10 10 3 6 8 10 10 10 2 0 7 -4 10 -10z m-97 -36 c-4
-3 -12 5 -18 18 -12 22 -12 22 6 6 10 -10 15 -20 12 -24z m-668 -49 c17 -25
29 -45 26 -45 -3 0 -19 20 -36 45 -17 25 -29 45 -26 45 3 0 19 -20 36 -45z
m1217 1 c0 -8 -6 -12 -15 -9 -11 5 -11 7 0 14 7 5 13 9 14 9 0 0 1 -6 1 -14z
m-87 -57 c0 -15 -4 -30 -10 -34 -5 -3 -9 6 -8 22 1 15 -1 39 -5 53 -8 24 -7
24 7 6 9 -11 16 -32 16 -47z m-710 -4 c0 -8 -4 -15 -10 -15 -5 0 -10 7 -10 15
0 8 5 15 10 15 6 0 10 -7 10 -15z m483 -2 c-7 -2 -19 -2 -25 0 -7 3 -2 5 12 5
14 0 19 -2 13 -5z m100 -70 c-7 -2 -19 -2 -25 0 -7 3 -2 5 12 5 14 0 19 -2 13
-5z m-870 -65 c9 -12 17 -28 17 -36 0 -19 -1 -18 -34 43 -15 28 -21 42 -14 32
7 -10 21 -28 31 -39z m820 11 c-6 -6 -19 -9 -29 -6 -17 3 -16 5 6 14 28 12 39
8 23 -8z m207 1 c0 -5 -5 -10 -11 -10 -5 0 -7 5 -4 10 3 6 8 10 11 10 2 0 4
-4 4 -10z m-260 -10 c0 -5 -7 -10 -16 -10 -8 0 -12 5 -9 10 3 6 10 10 16 10 5
0 9 -4 9 -10z m-134 -117 c-11 -11 -19 6 -11 24 8 17 8 17 12 0 3 -10 2 -21
-1 -24z m-562 1 c3 -8 2 -12 -4 -9 -6 3 -10 10 -10 16 0 14 7 11 14 -7z m352
-8 c10 -8 16 -17 12 -21 -8 -8 -48 13 -48 25 0 14 13 12 36 -4z m-16 -36 c0
-5 -4 -10 -10 -10 -5 0 -10 5 -10 10 0 6 5 10 10 10 6 0 10 -4 10 -10z m655
-35 c17 -8 23 -14 15 -14 -8 0 -33 8 -55 19 -42 21 -11 17 40 -5z m-635 -35
c0 -5 -4 -10 -10 -10 -5 0 -10 5 -10 10 0 6 5 10 10 10 6 0 10 -4 10 -10z
m810 -60 c0 -5 -4 -10 -9 -10 -6 0 -13 5 -16 10 -3 6 1 10 9 10 9 0 16 -4 16
-10z m71 -27 c46 -51 53 -68 13 -30 -22 20 -45 37 -52 37 -7 0 -12 5 -12 10 0
19 26 10 51 -17z m24 -71 c-7 -7 -45 29 -45 41 0 6 11 0 25 -13 14 -13 23 -26
20 -28z m-246 -65 c0 -21 -1 -21 -9 -2 -12 28 -12 37 0 30 6 -3 10 -16 9 -28z
m91 13 c0 -5 -4 -10 -10 -10 -5 0 -10 5 -10 10 0 6 5 10 10 10 6 0 10 -4 10
-10z m-20 -40 c0 -5 -12 -10 -26 -10 -14 0 -23 4 -19 10 3 6 15 10 26 10 10 0
19 -4 19 -10z"/>
<path d="M6760 2271 c0 -6 4 -13 10 -16 6 -3 7 1 4 9 -7 18 -14 21 -14 7z"/>
</g>
</svg>
